<?xml version="1.0" encoding="UTF-8"?>
<!DOCTYPE svg PUBLIC "-//W3C//DTD SVG 1.1//EN" "http://www.w3.org/Graphics/SVG/1.1/DTD/svg11.dtd">
<svg xmlns="http://www.w3.org/2000/svg" xml:space="preserve" width="300px" height="300px" version="1.1" style="shape-rendering:geometricPrecision; text-rendering:geometricPrecision; image-rendering:optimizeQuality; fill-rule:evenodd; clip-rule:evenodd"
viewBox="0 0 600 600"
 xmlns:xlink="http://www.w3.org/1999/xlink">
 <defs>
  <style type="text/css">
   <![CDATA[
    .fil0 {fill:#337700}
    .fil1 {fill:#F3F3EB}
    .fil2 {fill:white;fill-rule:nonzero}
   ]]>
  </style>
 </defs>
 <g id="Layer_x0020_1">
  <metadata id="Wiki-Layer"/>
  <g id="_1323419152064">
   <polygon class="fil0" points="300,0 314.89,15.78 331.36,1.64 344.52,18.9 362.37,6.56 373.66,25.09 392.7,14.68 402,34.29 422.02,25.94 429.21,46.41 450,40.19 455.01,61.31 476.34,57.29 479.11,78.82 500.74,77.06 501.25,98.75 522.94,99.26 521.18,120.89 542.71,123.66 538.69,144.99 559.81,150 553.59,170.79 574.06,177.98 565.71,198 585.32,207.3 574.91,226.34 593.44,237.63 581.1,255.48 598.36,268.64 584.22,285.11 600,300 584.22,314.89 598.36,331.36 581.1,344.52 593.44,362.37 574.91,373.66 585.32,392.7 565.71,402 574.06,422.02 553.59,429.21 559.81,450 538.69,455.01 542.71,476.34 521.18,479.11 522.94,500.74 501.25,501.25 500.74,522.94 479.11,521.18 476.34,542.71 455.01,538.69 450,559.81 429.21,553.59 422.02,574.06 402,565.71 392.7,585.32 373.66,574.91 362.37,593.44 344.52,581.1 331.36,598.36 314.89,584.22 300,600 285.11,584.22 268.64,598.36 255.48,581.1 237.63,593.44 226.34,574.91 207.3,585.32 198,565.71 177.98,574.06 170.79,553.59 150,559.81 144.99,538.69 123.66,542.71 120.89,521.18 99.26,522.94 98.75,501.25 77.06,500.74 78.82,479.11 57.29,476.34 61.31,455.01 40.19,450 46.41,429.21 25.94,422.02 34.29,402 14.68,392.7 25.09,373.66 6.56,362.37 18.9,344.52 1.64,331.36 15.78,314.89 0,300 15.78,285.11 1.64,268.64 18.9,255.48 6.56,237.63 25.09,226.34 14.68,207.3 34.29,198 25.94,177.98 46.41,170.79 40.19,150 61.31,144.99 57.29,123.66 78.82,120.89 77.06,99.26 98.75,98.75 99.26,77.06 120.89,78.82 123.66,57.29 144.99,61.31 150,40.19 170.79,46.41 177.98,25.94 198,34.29 207.3,14.68 226.34,25.09 237.63,6.56 255.48,18.9 268.64,1.64 285.11,15.78 "/>
   <path class="fil1" d="M36.5 300c0,-145.53 117.97,-263.5 263.5,-263.5 145.53,0 263.5,117.97 263.5,263.5 0,145.53 -117.97,263.5 -263.5,263.5 -145.53,0 -263.5,-117.97 -263.5,-263.5zm263.5 -271c-149.67,0 -271,121.33 -271,271 0,149.67 121.33,271 271,271 149.67,0 271,-121.33 271,-271 0,-149.67 -121.33,-271 -271,-271z"/>
   <path class="fil1" d="M300 539.65c-132.36,0 -239.65,-107.29 -239.65,-239.65 0,-132.36 107.29,-239.65 239.65,-239.65 132.36,0 239.65,107.29 239.65,239.65 0,132.36 -107.29,239.65 -239.65,239.65zm0 -495.55c-141.33,0 -255.9,114.57 -255.9,255.9 0,141.33 114.57,255.9 255.9,255.9 141.33,0 255.9,-114.57 255.9,-255.9 0,-141.33 -114.57,-255.9 -255.9,-255.9z"/>
   <g>
    <path class="fil2" d="M301.63 146c-1.03,0.14 -1.61,0.2 -1.76,0.18 -0.03,-0.01 -0.05,-0.02 -0.05,-0.03 0.01,-0.06 0.41,-0.25 1.21,-0.59 0.75,-0.28 1.93,-0.86 3.54,-1.76 0.84,-0.6 2.03,-1.59 3.58,-2.95 1.07,-0.94 2.18,-1.71 3.33,-2.33 1.4,-0.74 2.75,-1.02 4.04,-0.83 0.3,0.04 0.69,0.18 1.17,0.43 0.47,0.24 0.89,0.39 1.24,0.44 0.67,0.1 1.24,-0.07 1.72,-0.51 0.4,-0.46 0.79,-0.91 1.19,-1.36 0.28,-0.33 0.51,-0.47 0.69,-0.45 0.09,0.02 0.12,0.1 0.1,0.26 -0.03,0.23 -0.2,0.6 -0.49,1.11 -0.15,0.25 0.46,0.48 1.82,0.67 0.14,0.03 0.23,0 0.25,-0.07 0.03,-0.03 0,-0.38 -0.09,-1.05 -0.03,-0.19 0.09,-0.43 0.36,-0.74 0.44,-0.56 0.7,-0.79 0.76,-0.71 0.27,0.37 0.36,0.88 0.26,1.54 -0.08,0.56 -0.3,1.18 -0.67,1.87 -0.36,0.7 -0.67,1.11 -0.93,1.24 -0.67,0.32 -1.6,0.07 -2.79,-0.74 -1.24,0.97 -2.38,1.38 -3.41,1.22 -0.31,-0.04 -0.68,-0.18 -1.13,-0.41 -0.45,-0.23 -0.8,-0.36 -1.03,-0.39 -1.77,-0.26 -3.68,0.31 -5.75,1.73 -1.52,1.11 -3.04,2.22 -4.57,3.32 -0.89,0.49 -1.76,0.8 -2.59,0.91z"/>
    <path class="fil2" d="M261.43 79.13c0,0.34 -0.44,1.12 -1.31,2.34 -0.97,1.35 -1.9,2.35 -2.79,2.98 -0.56,0.4 -2.44,1.02 -5.64,1.86 -0.46,0.12 -0.73,0.18 -0.82,0.18l0 -0.05c0.08,-0.07 0.26,-0.23 0.57,-0.46 0.4,-0.32 1.54,-0.97 3.4,-1.94 1.78,-0.95 2.82,-1.56 3.13,-1.82 0.05,-0.06 0.07,-0.11 0.07,-0.16 0,-0.42 -1.58,-0.63 -4.74,-0.63 -0.02,0 -0.62,0.02 -1.82,0.08 -0.26,0.01 -0.47,0 -0.61,-0.01l0 -0.69 1.08 -1.82c0.33,-0.55 0.93,-0.9 1.8,-1.05 0.32,-0.05 1.05,-0.08 2.2,-0.08 3.65,0 5.48,0.43 5.48,1.27z"/>
    <path class="fil2" d="M391.56 138.87c-0.42,1.27 -1.06,2.72 -1.91,4.34 -3.24,2.7 -5.89,4.63 -7.96,5.79 -3.62,2.03 -7.23,3.05 -10.84,3.05 -1.85,0 -3.24,-0.19 -4.17,-0.57l-1.14 -5.71c-2.2,-2.79 -3.31,-5.48 -3.31,-8.07 0,-4.07 1.25,-7.2 3.74,-9.39 2.13,-1.86 4.77,-2.79 7.93,-2.79 4.18,0 7.92,1.38 11.21,4.14 0.55,0.45 0.83,0.77 0.83,0.94 0,0.11 -0.11,0.17 -0.32,0.17 -0.26,0 -0.68,-0.11 -1.25,-0.31 -2.21,-0.8 -4.17,-1.2 -5.88,-1.2 -2.51,0 -5.08,0.37 -7.71,1.12 -2.64,0.75 -4.56,1.67 -5.78,2.76 0,2.7 0.94,5.36 2.82,7.98 2.3,3.2 5.24,4.8 8.82,4.8 1.84,0 4.25,-0.85 7.21,-2.54 2.42,-1.39 4.65,-2.98 6.71,-4.77 0.42,-0.36 0.72,-0.55 0.91,-0.57 0.31,0 0.33,0.28 0.09,0.83z"/>
    <path class="fil2" d="M231.21 164.44c-2.1,0 -3.86,-1.64 -5.31,-4.91 -1.29,-2.87 -1.94,-5.87 -1.94,-9.01 0,-3.77 0.37,-6.77 1.11,-9.02 0.27,-0.8 0.48,-1.19 0.63,-1.19 0.25,0 0.31,0.5 0.17,1.51 -0.3,2.36 -0.45,4.38 -0.45,6.07 0,7.95 1.85,11.93 5.56,11.93 1.5,0 2.86,-1.16 4.08,-3.48 1.29,-2.78 2.57,-5.56 3.85,-8.33 1.14,-2.3 2.51,-4.24 4.11,-5.82 1.69,-1.68 3.22,-2.51 4.59,-2.51 1.31,0 2.74,1.43 4.28,4.31 1.44,2.68 2.81,4.32 4.11,4.93 1.65,0.78 4.59,1.48 8.53,2.08 5.04,0.76 10.86,1.14 17.46,1.14 10.46,0 21.28,-1.16 32.46,-3.51 11.35,-2.39 20.41,-5.44 27.18,-9.15 0.33,-0.17 0.54,-0.24 0.66,-0.2 0.13,0.06 0.17,0.26 0.11,0.63 -0.11,0.85 -0.17,1.6 -0.17,2.25 0,3.12 1.35,4.68 4.05,4.68 3.73,0 6.46,-1.14 7.96,-3.38 1.1,-1.64 1.65,-4.43 1.65,-8.36 0,-11.09 -0.47,-20.47 -1.42,-28.16 -0.46,-3.7 -1.04,-7.37 -1.74,-11.01 0.38,-2.39 0.74,-4.05 1.08,-4.96 0.15,-0.4 0.28,-0.6 0.4,-0.6 0.13,0 0.26,0.21 0.4,0.63 1.25,4.05 2.27,9.19 3.05,15.43 0.4,3.18 0.7,7.99 0.91,14.43 0.21,6.53 0.46,10.99 0.74,13.38 0.52,4.22 1.42,6.97 2.71,8.25 1.49,1.46 3.06,2.58 4.71,3.36l0 5.71c-2.47,-1.01 -4.37,-2.09 -5.7,-3.25 -2.08,-1.75 -3.45,-4.02 -4.11,-6.79 -0.32,4.16 -1.84,7.19 -4.54,9.1 -1.78,1.27 -3.89,1.92 -6.1,1.92 -1.79,0 -3.26,-0.62 -4.42,-1.88 -1.25,-1.35 -1.94,-3.24 -2.05,-5.68 -7.76,3.92 -17.07,7.07 -27.93,9.45 -10.46,2.28 -20.35,3.42 -29.66,3.42 -12.16,0 -20.99,-1.08 -26.22,-3.22 -1.7,-0.71 -3.16,-1.88 -4.4,-3.51 -0.13,-0.17 -0.94,-1.49 -2.42,-3.94 -0.74,-1.25 -1.47,-1.88 -2.17,-1.88 -2.13,0 -4.37,1.81 -6.73,5.42 -0.42,0.64 -1.17,2.32 -2.26,5.03 -1.08,2.71 -2.02,4.68 -2.82,5.89 -1.25,1.87 -2.59,2.8 -3.99,2.8z"/>
    <path class="fil2" d="M344.45 86.43c0,-1.82 -0.28,-3.33 -0.85,-4.5 0,-0.67 0.53,-2.25 1.59,-4.74 0.14,-0.3 0.25,-0.46 0.35,-0.46 0.11,0 0.24,0.17 0.39,0.49 0.31,0.65 1.01,2.43 2.11,5.36 1.16,3.05 1.84,4.92 2.03,5.62 0.15,0.53 0.23,0.93 0.23,1.2 0,0.84 -0.81,0.33 -2.43,-1.51 -0.19,-0.27 -0.28,-0.16 -0.28,0.34 0,0.17 0.42,6.02 1.25,17.54 0.84,11.53 1.26,18.01 1.26,19.46 0,4.43 -0.68,8.33 -2.03,11.69 -0.28,0.69 -0.51,1.18 -0.68,1.49l0 0c-0.27,0.45 -0.43,0.52 -0.49,0.2 -0.07,-0.35 -0.04,-1.07 0.09,-2.17 0.17,-1.52 0.26,-3.29 0.26,-5.31 0,-1.82 -0.47,-9.33 -1.4,-22.53 -0.93,-13.2 -1.4,-20.59 -1.4,-22.17z"/>
    <path class="fil2" d="M272.36 123.65c-0.42,3.58 -0.71,5.37 -0.86,5.37 -0.15,0 -0.44,-1.47 -0.86,-4.4 -0.72,-4.68 -4.18,-10 -10.38,-15.97 -7.61,-7.23 -13.16,-13.01 -16.66,-17.34 -0.91,-1.26 -2.13,-2.99 -3.65,-5.2 -0.49,-0.72 -1.01,-1.23 -1.54,-1.54 -0.3,-0.19 -0.46,-0.49 -0.46,-0.91l0 -3.82c0,-0.76 0.14,-1.14 0.4,-1.14 0.19,0 0.54,0.19 1.03,0.57l7.25 5.53c0.53,0.42 0.79,0.74 0.79,0.97 0,0.15 -0.21,0.23 -0.62,0.23 -0.61,0 -1.62,-0.15 -3.03,-0.46 1.18,1.6 4.05,4.72 8.62,9.36 3.31,3.31 6.62,6.6 9.92,9.87 6.74,6.85 10.1,12.7 10.1,17.57 0,0.46 -0.02,0.9 -0.05,1.31zm31.86 3.26c2.32,0 4.54,-0.85 6.67,-2.54 0.19,-0.15 1.07,-1.06 2.63,-2.71 1.44,-1.54 2.22,-2.31 2.34,-2.31 0.34,0 0.39,0.34 0.17,1.02 -0.31,0.9 -0.46,1.48 -0.46,1.74 0,0.65 0.28,1.39 0.83,2.23 0.72,1.1 1.67,1.65 2.85,1.65 3.12,0 5.79,-2.24 8.02,-6.73 0.22,-0.46 0.49,-0.68 0.79,-0.68 0.25,0 0.38,0.21 0.38,0.62 0,0.16 -0.03,0.4 -0.08,0.74 -0.04,0.35 -0.07,0.6 -0.07,0.78 0,1.31 0.41,2.37 1.22,3.19 0.8,0.82 1.84,1.23 3.09,1.23 1.83,0 3.74,-0.71 5.46,-2.12 0.49,-0.42 0.74,-1.94 0.74,-4.56 0,-1.6 -0.41,-8.02 -1.23,-19.26 -0.82,-11.24 -1.23,-17.86 -1.23,-19.88 0,-1.82 -0.28,-3.33 -0.85,-4.5 0,-0.65 0.53,-2.23 1.6,-4.74 0.11,-0.3 0.22,-0.46 0.34,-0.46 0.11,0 0.25,0.17 0.4,0.52 0.3,0.64 1.01,2.43 2.11,5.36 1.14,3.04 1.82,4.91 2.05,5.59 0.12,0.57 0.17,0.97 0.17,1.2 0,0.83 -0.8,0.34 -2.39,-1.48 -0.19,-0.27 -0.29,-0.16 -0.29,0.34 0,0.11 0.36,5.11 1.09,15 0.72,9.89 1.08,15.79 1.08,17.69 0,5.51 -0.99,9.85 -2.97,13.01 -1.67,2.66 -3.8,3.99 -6.08,3.99 -2.87,0 -4.93,-1.81 -6.16,-5.45 -0.15,-0.47 -0.32,-0.47 -0.52,0 -1.63,4.21 -3.94,6.31 -6.93,6.31 -3.04,0 -4.85,-1.92 -5.42,-5.76 -0.03,-0.33 -0.08,-0.49 -0.14,-0.49 -0.06,0.04 -0.17,0.2 -0.34,0.49 -0.72,1.19 -1.8,2.42 -3.22,3.68 -2.27,2.01 -4.51,3.02 -6.74,3.02 -2.47,0 -4.19,-0.74 -5.16,-2.23 -0.59,-0.93 -0.92,-2.31 -1,-4.13 -0.02,-0.21 -0.11,-0.32 -0.28,-0.32 -0.31,0 -0.61,0.18 -0.92,0.55 -1.9,2.2 -3.13,3.54 -3.68,4.02 -2.41,2.07 -5.03,3.11 -7.7,3.11 -2.85,0 -4.9,-1.1 -6.16,-3.31 -0.84,-1.45 -1.41,-3.79 -1.71,-7.02 -1.07,5.17 -2.09,8.46 -3.08,9.87 -2.24,3.23 -4.83,5.52 -7.76,6.85 -1.14,0.49 -3.1,1.1 -5.88,1.82 -2.77,0.73 -4.81,1.16 -6.1,1.31 -0.53,0.04 -0.8,-0.01 -0.8,-0.17 0,-0.15 0.25,-0.38 0.74,-0.68 2.59,-1.48 6.72,-3.96 12.38,-7.42 6.39,-4.18 9.59,-10.32 9.59,-18.43 0,-10.53 -0.5,-19.72 -1.49,-27.55 -0.26,-2.59 -0.8,-6.26 -1.59,-11.01 0.41,-2.74 0.74,-4.39 0.97,-4.96 0.15,-0.42 0.28,-0.63 0.4,-0.63 0.11,0 0.24,0.21 0.39,0.63 1.26,4.07 2.27,9.22 3.03,15.46 0.53,4.18 0.91,10.68 1.14,19.51 0.23,7.95 0.53,12.87 0.91,14.77 0.46,2.17 1.16,3.66 2.11,4.45 0.69,0.54 1.66,0.8 2.91,0.8 2.8,0 5.33,-0.73 7.42,-2.19 0.83,-0.59 2.73,-2.36 5.68,-5.31 0.36,-0.36 0.7,-0.54 1.02,-0.54 0.52,0 0.66,0.34 0.43,1.03 -0.23,0.68 -0.34,1.32 -0.34,1.91 0,1.31 0.54,2.33 1.62,3.05 1.03,0.68 2.36,1.03 4,1.03z"/>
    <path class="fil2" d="M254.84 121.34c0,-0.46 -0.89,-1.06 -2.65,-1.8 -1.77,-0.74 -3.07,-1.03 -3.91,-0.88 -0.31,0.07 -0.42,0.19 -0.34,0.34 0.3,0.84 0.95,2.22 1.94,4.16 2.58,-0.83 4.24,-1.44 4.96,-1.82zm-22.02 11.3c5.21,-4.11 10.21,-6.96 15,-8.56 -0.34,-0.57 -0.83,-1.52 -1.48,-2.86 -0.31,-0.64 -0.46,-1.42 -0.46,-2.33 0,-1.49 0.38,-2.74 1.14,-3.77 0.88,-1.25 2.19,-1.88 3.94,-1.88 1.37,0 3.33,0.89 5.88,2.68 2.7,1.82 4.05,3.35 4.05,4.56 -0.38,1.6 -0.86,3.1 -1.43,4.51 -2.17,0.65 -4.79,1.46 -7.87,2.45 0.11,1.75 -0.06,2.63 -0.52,2.63 -0.34,0 -0.7,-0.67 -1.08,-2 -1.41,0.5 -3.37,1.33 -5.88,2.51 -3.65,1.68 -6.4,3.25 -8.27,4.74 -2.85,2.24 -5.74,4.96 -8.67,8.15 -3.35,3.69 -5.29,5.77 -5.82,6.22 -1.82,1.64 -3.61,2.46 -5.36,2.46 -1.9,0 -3.58,-0.87 -5.02,-2.6 -1.45,-1.73 -2.17,-3.87 -2.17,-6.42 0,-3.53 1.44,-8.12 4.33,-13.75 0.31,-0.57 0.56,-0.85 0.75,-0.85 0.07,0 0.11,0.07 0.11,0.23 0,0.57 -0.63,2.53 -1.88,5.9 -1.26,3.37 -1.88,6.04 -1.88,8.02 0,1.48 0.36,2.69 1.08,3.62 0.72,0.93 1.75,1.4 3.08,1.4 1.83,0 3.82,-0.9 5.99,-2.68 1.14,-0.96 3.1,-2.97 5.88,-6.05 2.66,-2.93 4.85,-5.04 6.56,-6.33z"/>
    <path class="fil2" d="M298.62 165.9l1.45 -2.99c0.12,-0.23 0.24,-0.35 0.37,-0.35 0.19,0 1.01,0.5 2.46,1.49 1.44,0.99 2.16,1.57 2.16,1.74 0,0.64 -0.63,1.99 -1.91,4.05 -0.15,0.24 -0.31,0.31 -0.48,0.2 -1.26,-0.94 -2.67,-1.91 -4.25,-2.94 -0.53,1.2 -1.06,2.21 -1.57,3.05 -0.15,0.27 -0.32,0.33 -0.49,0.2 -1.42,-1.08 -2.9,-2.1 -4.42,-3.05 -0.07,-0.06 -0.07,-0.17 0,-0.34l1.83 -3.74c0.11,-0.23 0.24,-0.34 0.37,-0.34 0.17,0 0.86,0.41 2.08,1.22 1.22,0.82 2.02,1.42 2.4,1.8z"/>
    <path class="fil2" d="M284.31 96.77c14.68,-5.45 30.03,-11.13 46.03,-17.05 0.63,-0.24 0.99,-0.31 1.11,-0.24 0.16,0.12 0.12,0.45 -0.12,1 -0.7,1.71 -1.26,2.74 -1.69,3.09 -13.25,4.88 -28.78,10.92 -46.58,18.11l0 -2.06c0.34,-0.91 0.76,-1.86 1.25,-2.85z"/>
    <path class="fil2" d="M261.01 91.29c14.68,-5.45 30.02,-11.14 46.03,-17.05 0.62,-0.24 0.99,-0.32 1.11,-0.24 0.15,0.12 0.12,0.45 -0.12,0.99 -0.7,1.72 -1.26,2.75 -1.69,3.1 -13.26,4.88 -28.78,10.91 -46.58,18.1l0 -2.05c0.34,-0.91 0.76,-1.86 1.25,-2.85z"/>
    <path class="fil2" d="M310.82 102.24c0,0.72 -0.15,1.47 -0.47,2.25 -0.42,0.99 -0.96,1.49 -1.63,1.49 -1.05,0 -1.8,-0.72 -2.24,-2.16 -0.5,1.85 -1.41,2.77 -2.74,2.77 -0.5,0 -0.93,-0.25 -1.3,-0.75 -0.42,-0.59 -0.63,-1.36 -0.63,-2.32l0 -2.27c0,-0.19 -0.13,-0.32 -0.38,-0.39 -0.25,-0.07 -0.37,-0.27 -0.37,-0.58 0,-0.5 0.21,-0.99 0.63,-1.47 0.39,-0.42 0.69,-0.63 0.89,-0.63 0.26,0 0.39,0.5 0.39,1.49 0,0.52 -0.04,0.95 -0.13,1.3 -0.08,0.35 -0.12,0.66 -0.12,0.91 0,0.54 0.11,1.06 0.33,1.55 0.26,0.58 0.58,0.86 0.97,0.86 0.5,0 0.96,-0.22 1.4,-0.68 0.43,-0.45 0.65,-0.98 0.65,-1.59 0,-0.35 -0.11,-0.95 -0.31,-1.8 -0.2,-0.84 -0.3,-1.37 -0.3,-1.57 0,-0.19 0.09,-0.48 0.27,-0.87 0.19,-0.4 0.33,-0.6 0.42,-0.6 0.17,0 0.38,0.56 0.65,1.69 0.27,1.12 0.4,1.95 0.4,2.49 0,1.55 0.6,2.32 1.8,2.32 0.51,0 0.84,-0.26 0.97,-0.77 -1.04,-1.81 -1.55,-3.19 -1.55,-4.15 0,-0.55 0.14,-1.04 0.41,-1.47 0.19,-0.29 0.32,-0.45 0.39,-0.47 0.07,0 0.13,0.19 0.17,0.56 0.05,0.51 0.13,0.94 0.24,1.27 0.02,0.03 0.27,0.67 0.75,1.91 0.3,0.73 0.44,1.3 0.44,1.68z"/>
    <path class="fil2" d="M233.29 108.18c0.3,-0.94 0.36,-1.88 0.2,-2.82 -0.2,-1.04 -0.67,-1.56 -1.41,-1.56 -0.36,0 -0.84,0.17 -1.46,0.51 -0.61,0.35 -0.92,0.68 -0.92,1 0,0.75 1.2,1.7 3.59,2.87zm-1.84 4.18c-3.01,-1.56 -4.52,-3.2 -4.52,-4.91 0,-2.07 0.96,-3.97 2.87,-5.69 1.91,-1.71 3.49,-2.34 4.76,-1.89 1.07,0.39 1.6,1.54 1.6,3.45 0,1.71 -0.36,3.64 -1.07,5.78 1.52,0.87 2.48,1.62 2.87,2.24 0,0.8 -0.68,2.18 -2.04,4.12 -0.39,-0.61 -1.31,-1.36 -2.77,-2.23 -1.68,2.33 -3.82,4.45 -6.41,6.36 -2.95,2.17 -5.66,3.81 -8.12,4.91 -0.52,0.26 -3.37,1.34 -8.55,3.26 -0.81,0.29 -1.34,0.43 -1.6,0.43 -0.13,0 -0.19,-0.03 -0.19,-0.09 0,-0.2 0.45,-0.59 1.36,-1.17 3.82,-2.27 7.66,-4.55 11.51,-6.85 4.6,-2.78 8.03,-5.36 10.3,-7.72z"/>
    <path class="fil2" d="M369.31 116.74c2.01,0 4.19,-0.35 6.53,-1.04 0.65,-0.18 0.98,-0.23 0.98,-0.15 0,0.08 -0.25,0.34 -0.74,0.76 -2.03,1.83 -4.64,2.75 -7.84,2.75 -0.99,0 -1.81,-0.26 -2.44,-0.78 -0.63,-0.52 -0.94,-1.17 -0.94,-1.97 0,-2.11 0.9,-4.33 2.71,-6.65 -1.58,-0.47 -2.38,-1.3 -2.38,-2.5 0,-1.02 0.64,-2.24 1.91,-3.66 1.27,-1.43 2.29,-2.14 3.07,-2.14 0.2,0 0.41,0.16 0.62,0.49 0.22,0.33 0.32,0.67 0.32,1.04 0,0.16 -0.21,0.55 -0.64,1.16 -0.43,0.61 -0.66,0.85 -0.7,0.73 -0.16,-0.63 -0.52,-0.95 -1.07,-0.95 -0.28,0 -0.63,0.25 -1.05,0.74 -0.42,0.48 -0.63,0.89 -0.63,1.22 0.51,0.83 1.38,1.25 2.6,1.25 0.4,0 1.05,-0.38 1.92,-1.13 0.51,-0.47 1.03,-0.95 1.55,-1.44 0.19,-0.14 0.28,0 0.28,0.43 0,0.94 -0.35,1.88 -1.04,2.84 -2.68,1.81 -4.68,3.89 -5.98,6.25 -0.24,0.45 -0.36,0.85 -0.36,1.19 0,1.04 1.1,1.56 3.32,1.56z"/>
   </g>
   <path class="fil2" d="M376.41 483.91c1.82,0.71 2.58,2.18 2.28,4.41l-2.28 20.09c-0.2,2.23 -1.63,3.35 -4.26,3.35 -12.78,0 -27.34,-3.25 -43.67,-9.74 -12.07,-4.97 -19.86,-9.74 -25.95,-14.3 -8.93,-6.7 -15.98,-15.53 -21.15,-26.48 -5.58,-11.97 -9.28,-42.91 -11.11,-92.82 -2.43,-67.05 -4.01,-104.28 -4.72,-111.69 -2.43,-24.24 -6.34,-42.35 -11.71,-54.33 0,-4.35 2.38,-12.32 7.15,-23.88 1.02,-2.44 1.83,-3.66 2.43,-3.66 0.61,0 1.42,1.02 2.44,3.05 5.98,11.67 10.6,32.05 13.85,61.17 1.11,10.45 2.17,32.06 3.19,64.82 0.61,20.8 1.22,41.59 1.83,62.39 2.23,47.37 8.87,76.49 19.93,87.34 1.3,1.28 2.61,2.52 3.94,3.7 0.95,-21.03 13.15,-36.42 36.61,-46.15l26.73 -10.49c-3.55,-9.74 -5.32,-19.63 -5.32,-29.68 0,-15.21 2.25,-27.44 6.77,-36.67 4.51,-9.23 10.47,-13.84 17.87,-13.84 6.6,0 12.79,5.47 18.57,16.43 5.18,9.74 7.76,18.57 7.76,26.48 0,20.08 -5.89,36.57 -17.65,49.45 8.32,8.62 17.64,12.07 29.3,12.07 9.74,0 19.17,-3.75 28.3,-11.25 2.64,-2.23 3.96,-10.35 3.96,-24.35 0,-8.52 -2.18,-42.76 -6.55,-102.71 -4.36,-59.95 -6.54,-95.31 -6.54,-106.06 0,-9.74 -1.52,-17.75 -4.56,-24.04 0,-3.45 2.84,-11.87 8.52,-25.26 0.6,-1.62 1.21,-2.43 1.83,-2.43 0.6,0 1.31,0.91 2.12,2.74 1.63,3.44 5.38,12.98 11.26,28.6 6.09,16.23 9.74,26.17 10.96,29.83 0.61,3.04 0.91,5.17 0.91,6.39 0,4.46 -4.26,1.82 -12.78,-7.91 -1.01,-1.42 -1.52,-0.81 -1.52,1.82 0,0.61 1.93,27.29 5.78,80.04 3.86,52.75 5.78,84.19 5.78,94.34 0,29.42 -5.27,52.55 -15.82,69.39 -8.93,14.2 -19.48,21.3 -31.65,21.3 -11.26,0 -22.1,-4.06 -33.87,-13.9 -6.29,-5.28 -11.21,-10.96 -14.76,-17.05l-35.4 14.14c-16.94,7.21 -25.41,11.57 -25.41,13.1 0,3.34 2.94,6.84 8.83,10.49 8.11,5.07 24.04,12.33 47.78,21.76zm33.42 -107.42c0,-3.34 -2.59,-8.52 -7.76,-15.52 -5.68,-7.5 -10.6,-11.26 -14.76,-11.26 -3.15,0 -6.24,1.93 -9.28,5.79 -3.05,3.85 -4.57,7.5 -4.57,10.95 0,2.94 1.68,8.06 5.03,15.37 2.83,6.39 5.07,10.7 6.69,12.94 4.26,-2.04 9.13,-4.93 14.61,-8.68 6.69,-4.46 10.04,-7.66 10.04,-9.59z"/>
   <path class="fil2" d="M330.37 376.45c-1.21,12.25 -4.87,21.87 -11,28.87 -11.98,13.98 -29.6,27.51 -52.85,40.6 -29.43,16.34 -56.86,24.52 -82.29,24.52 -34.15,0 -57.67,-16.71 -70.57,-50.14 -2.5,-6.43 -3.78,-14.63 -3.82,-24.59l0 -0.47 0 -0.32 0 -0.31c0.03,-6.52 0.58,-13.12 1.64,-19.81 1.63,-10.18 3.9,-19.08 6.81,-26.71 0.91,-2.36 1.81,-3.54 2.73,-3.54 0.9,0 1.08,1.55 0.54,4.63 -1.09,4.73 -2.18,9.45 -3.27,14.18 -1.82,8.35 -2.73,14.53 -2.73,18.52 0,13.81 4.64,26.53 13.9,38.15 12.54,15.44 30.7,23.16 54.49,23.16 20.9,0 43.06,-4.91 66.49,-14.71 18.89,-7.82 35.88,-17.62 50.95,-29.43 13.63,-10.53 20.44,-18.08 20.44,-22.61 0,-0.73 -2.81,-6.64 -8.45,-17.72 -6.72,-13.08 -11.71,-25.79 -14.99,-38.14 -1.26,-4.18 -2.76,-7 -4.49,-8.45 -1.72,-1.46 -2.58,-3 -2.58,-4.63 0,-1.27 1.26,-7.99 3.81,-20.16 0.36,-2.18 0.91,-3.27 1.63,-3.27 0.73,0 1.63,0.54 2.73,1.63 3.45,3.81 10.89,11.35 22.34,22.61 1.81,1.82 2.72,3.27 2.72,4.36 0,1.28 -1.09,1.91 -3.27,1.91 -2.36,0 -5.9,-0.72 -10.62,-2.18 0.36,1.46 4.18,9.45 11.44,23.98 4.5,9.13 7.25,17.28 8.27,24.45l0 15.62z"/>
   <path class="fil2" d="M204.72 365.55c-0.32,-0.23 -0.32,-0.7 0,-1.4l7.48 -15.33c0.47,-0.94 0.98,-1.4 1.53,-1.4 0.78,0 4.13,2.02 10.06,6.08 5.93,4.06 8.89,6.44 8.89,7.14 0,2.65 -2.61,8.19 -7.83,16.62 -0.63,1.09 -1.3,1.36 -2,0.82 -5.85,-4.45 -11.89,-8.62 -18.13,-12.53z"/>
   <path class="fil2" d="M380.78 273.45l6.69 -13.76c0.52,-1.05 1.09,-1.57 1.7,-1.57 0.87,0 4.63,2.27 11.27,6.81 6.64,4.55 9.96,7.21 9.96,8 0,2.97 -2.92,9.17 -8.78,18.61 -0.7,1.14 -1.44,1.44 -2.23,0.92 -5.76,-4.28 -12.28,-8.78 -19.53,-13.5 -2.44,5.5 -4.85,10.18 -7.21,14.02 -0.7,1.23 -1.44,1.53 -2.23,0.92 -6.55,-4.98 -13.32,-9.66 -20.31,-14.02 -0.35,-0.26 -0.35,-0.79 0,-1.57l8.39 -17.18c0.52,-1.05 1.09,-1.57 1.7,-1.57 0.79,0 3.98,1.88 9.57,5.64 5.59,3.75 9.26,6.51 11.01,8.25z"/>
   <path class="fil2" d="M145.83 289.39c0,3.56 -0.77,6.49 -2.31,8.8 -1.53,2.31 -3.57,3.47 -6.1,3.47 -3.59,0 -6.89,-1.63 -9.9,-4.9 -2.38,-2.63 -4.27,-5.88 -5.66,-9.73 -5.54,2.49 -8.3,7.02 -8.3,13.58 0,3.23 0.95,8.93 2.86,17.1 1.13,4.77 2.27,9.53 3.41,14.3 1.65,8.58 2.2,14.94 1.65,19.08 -0.52,3.85 -0.94,5.77 -1.27,5.77 -0.33,0 -0.62,-1.88 -0.88,-5.66 -0.07,-2.34 -0.46,-5.85 -1.15,-10.5 -5.06,-18.59 -7.59,-31.03 -7.59,-37.34 0,-11.54 2.97,-19.44 8.91,-23.7l0.44 -0.2c-0.82,-2.55 -1.16,-4.65 -1.01,-6.32 0.62,-6.74 2.87,-12.66 6.76,-17.76 3.45,-4.47 6.63,-6.71 9.57,-6.71 1.02,0 2.11,1.34 3.24,4.02 1.54,3.63 2.92,6.14 4.13,7.53 2.31,2.68 5.42,4.01 9.34,4.01 4.88,0 8.11,-2.26 11.56,-6.37 0.47,-0.51 0.6,-1.06 0.38,-1.65 -1.69,-4.76 -6.6,-10.4 -14.73,-16.93 -9.32,-7.26 -18.61,-14.52 -27.88,-21.77 -0.29,-0.26 -0.44,-0.98 -0.44,-2.15 0,-2.31 0.42,-5.08 1.26,-8.3 0.88,-3.49 1.84,-5.68 2.86,-6.6 6.23,-5.61 19.61,-13.01 40.14,-22.22 20.71,-9.31 34.4,-13.96 41.08,-13.96 1.98,0 3.33,0.39 4.07,1.18 0.73,0.79 1.1,2.14 1.1,4.04 0,4.36 -2.61,9.79 -7.81,16.28 -1.95,2.2 -3.91,4.41 -5.89,6.65 -3.11,3.63 -5.22,6.58 -6.32,8.85 -0.73,1.54 -1.19,2.31 -1.37,2.31 -0.19,0 -0.08,-1.02 0.33,-3.07 0.21,-1.14 1.08,-3.1 2.58,-5.89 1.36,-2.57 2.38,-4.23 3.08,-5 5.86,-6.67 9.38,-11.06 10.56,-13.14 0.11,-0.22 0.16,-0.44 0.16,-0.66 0,-1.25 -1.65,-1.87 -4.95,-1.87 -5.28,0 -17.67,4.45 -37.17,13.36 -19.68,9.02 -33.1,16.44 -40.25,22.27 -0.48,0.4 -0.4,0.75 0.22,1.04 5.17,2.46 10.25,5.1 15.23,7.92 12.03,6.82 22.62,13.98 31.79,21.5 4.87,4.03 7.8,6.4 8.79,7.09 1.94,1.41 4.12,2.76 6.53,4.05 -1.26,-4.52 -1.9,-8.08 -1.9,-10.67 0,-5.57 0.79,-9.61 2.37,-12.1 3.12,-4.95 7.75,-7.42 13.91,-7.42 2.75,0 8.98,1.35 18.7,4.07 10.88,3 17.46,4.69 19.74,5.06 7.47,1.13 12.2,1.7 14.18,1.7 1.07,0 1.56,0.31 1.49,0.93 0,0.26 -0.09,0.63 -0.28,1.11l-2.75 7.09c-0.33,0.8 -0.84,1.21 -1.54,1.21 -3.77,0 -7.18,0.57 -10.22,1.7 -3.63,1.36 -10.21,4.57 -19.74,9.63 -12.65,6.7 -21.94,10.06 -27.88,10.06 -0.66,2.86 -1.29,4.29 -1.87,4.29 -0.51,0 -0.92,-1.34 -1.21,-4 -4.05,-1.69 -8.35,-4.57 -12.55,-8.19 -6.05,-5.27 -10.08,-8.59 -12.1,-9.95 -0.7,-0.47 -1.08,-0.71 -1.15,-0.71 -0.15,0 0.02,0.53 0.49,1.59 1.61,3.7 2.42,6.47 2.42,8.31 0,5.68 -1.91,10.57 -5.72,14.68 -3.37,3.63 -5.85,5.65 -9.3,5.65 -4.69,0 -8.39,-1.34 -11.1,-4.01 -1.54,-1.54 -3.08,-4.05 -4.62,-7.54 -1.18,-2.67 -2.24,-4.01 -3.19,-4.01 -1.4,0 -3.45,1.43 -6.16,4.29 -2.93,3.04 -4.4,5.64 -4.4,7.81 0,1.76 0.81,3.57 2.44,5.44 3.25,-1.41 6.84,-2.11 10.78,-2.11 3.11,0 5.58,1.31 7.39,3.93 1.82,2.62 2.72,6.08 2.72,10.36zm86.28 -50.19c-17.23,-5.43 -28.58,-8.14 -34.04,-8.14 -2.82,0 -5.31,0.94 -7.48,2.81 -1.94,1.61 -2.91,3.2 -2.91,4.78 1.21,2.89 2.9,7.48 5.06,13.75 0.95,0.11 1.9,0.16 2.86,0.16 4.58,0 11.62,-2.15 21.11,-6.43l15.4 -6.93zm-94.36 50.86c1.47,0.07 2.2,-0.3 2.2,-1.1 0,-1.14 -0.95,-2.17 -2.86,-3.08 -1.47,-0.7 -3.9,-0.85 -7.31,-0.44 1.68,2.89 4.34,4.43 7.97,4.62z"/>
   <path class="fil2" d="M160.58 334.3l3.46 -7.12c0.27,-0.55 0.56,-0.82 0.88,-0.82 0.45,0 2.4,1.18 5.84,3.53 3.44,2.35 5.16,3.73 5.16,4.14 0,1.54 -1.52,4.75 -4.55,9.64 -0.37,0.59 -0.75,0.75 -1.16,0.48 -2.98,-2.22 -6.35,-4.55 -10.11,-7 -1.27,2.86 -2.51,5.28 -3.74,7.27 -0.36,0.63 -0.74,0.79 -1.15,0.47 -3.39,-2.58 -6.9,-5 -10.52,-7.26 -0.18,-0.14 -0.18,-0.41 0,-0.81l4.34 -8.9c0.28,-0.54 0.57,-0.81 0.89,-0.81 0.4,0 2.06,0.97 4.95,2.92 2.9,1.94 4.8,3.37 5.71,4.27z"/>
   <path class="fil2" d="M434.85 194.44c0.35,1.57 0.13,3.21 -0.66,4.91 -0.82,1.7 -1.61,2.37 -2.44,1.99 -1.27,-0.62 -3.75,-2.04 -7.42,-4.24 -3.97,6.09 -11.75,13.69 -23.37,22.78 -11.63,9.12 -19.23,13.52 -22.85,13.24 -0.76,-0.06 -1.22,-0.39 -1.46,-0.93 7.21,-5.38 14.47,-10.7 21.75,-16 12.09,-9.03 19.49,-15.98 22.18,-20.78 -2.1,-1.6 -4.23,-3.2 -6.44,-4.8 -1.91,-1.95 -2.71,-4.55 -2.46,-7.82 0.14,-1.78 1.67,-4.35 4.57,-7.69 2.9,-3.34 5.29,-4.95 7.18,-4.78 5.51,0.42 8.01,3.92 7.47,10.48 -0.2,2.71 -0.99,5.46 -2.38,8.32 1.97,1.25 4.07,3.04 6.33,5.32zm-9.95 -6.5c0.33,-0.86 0.52,-1.81 0.61,-2.8 0.34,-4.3 -0.79,-6.57 -3.44,-6.77 -2.1,-0.17 -3.32,0.72 -3.68,2.63 -0.41,1.62 1.77,3.93 6.51,6.94zm-3 32.63c0.94,-7.13 4.97,-15.22 12.11,-24.3l0.48 -0.19c0.3,0.08 0.46,0.22 0.44,0.44 -5.49,8.65 -8.52,14.88 -9.02,18.66 -0.1,-0.02 -0.24,0.46 -0.43,1.46 -0.59,4.67 1,7.89 4.72,9.66l0.62 0.14c2.35,0.28 4.33,-0.74 5.87,-3.11 0.36,-0.51 0.68,-0.73 0.92,-0.65l0.17 0c0.27,0.03 0.46,0.25 0.59,0.63 -2.11,7.28 -5.17,10.71 -9.22,10.23l-0.95 -0.08c-5.05,-1.94 -7.14,-6.24 -6.3,-12.89z"/>
   <path class="fil2" d="M359.85 210.13c0,0.97 -1.24,3.19 -3.72,6.65 -2.78,3.87 -5.43,6.71 -7.95,8.51 -1.61,1.13 -6.97,2.89 -16.06,5.3 -1.32,0.34 -2.1,0.5 -2.34,0.49l0 -0.13c0.21,-0.21 0.74,-0.65 1.6,-1.32 1.17,-0.9 4.4,-2.74 9.7,-5.52 5.07,-2.71 8.04,-4.44 8.91,-5.19 0.15,-0.15 0.22,-0.3 0.22,-0.45 0,-1.21 -4.51,-1.81 -13.53,-1.81 -0.04,0 -1.76,0.08 -5.18,0.23 -0.74,0.03 -1.32,0.03 -1.72,-0.01l0 -1.97 3.07 -5.18c0.94,-1.58 2.65,-2.57 5.13,-2.99 0.9,-0.15 2.99,-0.22 6.26,-0.22 10.41,0 15.61,1.2 15.61,3.61z"/>
   <path class="fil2" d="M509.93 308.6c0,-1.86 -3.33,-4.65 -10,-8.37 -2.05,3.91 -3.07,7.44 -3.07,10.58 0,1.98 0.93,2.98 2.78,2.98 1.67,0 3.6,-0.58 5.77,-1.73 2.18,-1.16 3.69,-2.31 4.52,-3.46zm-6.53 -17.12c6.73,4.94 9.87,9.87 9.42,14.81 -0.45,5.32 -1.19,8.65 -2.21,10 -2.95,3.97 -6.6,5.96 -10.97,5.96 -4.23,0 -6.34,-2.56 -6.34,-7.69 0,-1.16 0.13,-2.41 0.38,-3.75 0.71,-4.3 2.73,-10.39 6.06,-18.27 2.82,-6.73 4.23,-12.37 4.23,-16.93 0,-9.04 -4.17,-17.72 -12.5,-26.05 -0.64,-0.65 -0.74,-1.35 -0.29,-2.12l2.89 -5.1c0.26,-0.45 0.67,-0.45 1.25,0 8.33,6.86 12.5,16.7 12.5,29.52 0,6.03 -1.47,12.57 -4.42,19.62z"/>
   <path class="fil2" d="M162.76 120.08c3.12,0 5.92,1.85 8.39,5.54 2.48,3.71 4.22,8.53 5.22,14.49 0.11,0.61 0.16,0.97 0.16,1.08 0.12,0.17 0.2,0.17 0.26,0 0.05,-0.11 0.19,-0.47 0.41,-1.08 0.51,-3.57 1.73,-8.88 3.68,-15.94 2.11,-5.07 4.42,-7.6 6.92,-7.6 1.28,0 2.56,0.86 3.84,2.59 1.12,1.5 1.67,2.72 1.67,3.67 0,0.72 -0.19,1.67 -0.58,2.84 -0.5,1.55 -1.09,2.33 -1.75,2.33 -0.28,0 -0.9,-0.59 -1.84,-1.79 -0.95,-1.2 -1.92,-1.79 -2.92,-1.79 -2.23,0 -4.29,5.25 -6.18,15.77 -0.83,4.56 -1.75,7.79 -2.75,9.68 -0.73,1.28 -1.34,1.92 -1.84,1.92 -0.44,0 -0.67,-0.58 -0.67,-1.75 0,-1.84 -1.05,-5.41 -3.17,-10.73 -2.11,-5.31 -3.61,-7.97 -4.5,-7.97 -0.62,0 -1.01,0.2 -1.17,0.59 -0.17,0.39 -0.67,0.58 -1.51,0.58 -0.94,0 -2.18,-0.69 -3.71,-2.08 -1.53,-1.4 -2.3,-2.51 -2.3,-3.34 0,-0.39 0.64,-1.66 1.92,-3.8 1.28,-2.14 2.09,-3.21 2.42,-3.21z"/>
   <path class="fil2" d="M397.17 106.78c3.12,0 5.92,1.85 8.39,5.55 2.47,3.7 4.22,8.53 5.22,14.48 0.11,0.62 0.16,0.98 0.16,1.09 0.11,0.16 0.2,0.16 0.25,0 0.06,-0.11 0.2,-0.47 0.42,-1.09 0.5,-3.56 1.73,-8.87 3.67,-15.94 2.12,-5.06 4.43,-7.59 6.93,-7.59 1.28,0 2.56,0.86 3.84,2.58 1.11,1.51 1.67,2.73 1.67,3.68 0,0.72 -0.19,1.67 -0.59,2.83 -0.5,1.56 -1.08,2.34 -1.75,2.34 -0.28,0 -0.89,-0.6 -1.83,-1.79 -0.95,-1.2 -1.92,-1.8 -2.92,-1.8 -2.23,0 -4.29,5.26 -6.18,15.78 -0.84,4.56 -1.76,7.79 -2.76,9.68 -0.72,1.28 -1.33,1.92 -1.83,1.92 -0.45,0 -0.67,-0.59 -0.67,-1.75 0,-1.84 -1.06,-5.41 -3.17,-10.73 -2.12,-5.31 -3.62,-7.97 -4.51,-7.97 -0.61,0 -1,0.19 -1.17,0.58 -0.16,0.39 -0.66,0.59 -1.5,0.59 -0.95,0 -2.18,-0.7 -3.71,-2.09 -1.53,-1.39 -2.3,-2.5 -2.3,-3.34 0,-0.39 0.64,-1.65 1.92,-3.8 1.28,-2.14 2.09,-3.21 2.42,-3.21z"/>
   <path class="fil2" d="M243.56 288.67c0,5.85 -2.4,12.49 -7.22,19.93 -4.92,7.8 -11.28,14.44 -19.07,19.94 -1.58,1.11 -2.83,1.94 -3.75,2.48l0 -2.1c0.55,-0.65 1.23,-1.4 2.03,-2.27 12.83,-13.97 19.25,-23.31 19.25,-28.01 0,-4.47 -2.06,-6.71 -6.19,-6.71 -2.29,0 -4.36,0.63 -6.19,1.9 -1.37,0.91 -2.23,1.43 -2.57,1.54 -0.23,-0.23 -0.52,-0.4 -0.87,-0.51 0.12,-0.46 0.35,-1.66 0.7,-3.61 2.06,-9.62 6.87,-14.44 14.43,-14.44 6.3,0 9.45,3.96 9.45,11.86z"/>
   <path class="fil2" d="M306.62 237.29c-0.52,1.26 -0.99,1.88 -1.41,1.88 -0.52,0 -0.6,-0.81 -0.24,-2.42 0.32,-1.41 0.47,-3.24 0.47,-5.48 0,-7.31 -4.12,-14.59 -12.36,-21.84 -0.53,-0.47 -0.6,-1.04 -0.24,-1.72l2.35 -4.15c0.21,-0.37 0.55,-0.37 1.02,0 8.09,6 12.13,14.19 12.13,24.57 0,3.24 -0.58,6.29 -1.72,9.16z"/>
   <path class="fil2" d="M262.29 499.63c0.25,-0.49 0.5,-0.87 0.75,-1.12 0.25,-0.16 0.37,-0.12 0.37,0.13 0.09,0.25 0.09,0.66 0,1.24 -2.23,12.18 -5.88,18.26 -10.93,18.26 -5.39,0 -8.08,-4.47 -8.08,-13.41 0,-11.02 3.19,-22.57 9.57,-34.67 1.57,-2.98 2.52,-4.51 2.86,-4.59 0.08,0 0.12,0.04 0.12,0.12 0,0.58 -0.46,2.28 -1.37,5.1 -4.14,12.59 -6.2,21.41 -6.2,26.46 0,6.87 1.86,10.31 5.58,10.31 2.16,0 4.6,-2.61 7.33,-7.83z"/>
   <path class="fil2" d="M91.46 299.48c-0.52,1.25 -0.99,1.88 -1.4,1.88 -0.53,0 -0.61,-0.81 -0.24,-2.43 0.31,-1.41 0.47,-3.24 0.47,-5.48 0,-7.3 -4.12,-14.58 -12.37,-21.84 -0.52,-0.47 -0.6,-1.04 -0.23,-1.72l2.35 -4.15c0.2,-0.36 0.54,-0.36 1.01,0 8.09,6.01 12.14,14.2 12.14,24.58 0,3.24 -0.58,6.29 -1.73,9.16z"/>
   <path class="fil2" d="M383.85 202.56c-0.52,1.26 -0.99,1.88 -1.41,1.88 -0.52,0 -0.6,-0.8 -0.23,-2.42 0.31,-1.41 0.47,-3.24 0.47,-5.48 0,-7.31 -4.12,-14.59 -12.37,-21.84 -0.52,-0.47 -0.6,-1.04 -0.23,-1.72l2.35 -4.15c0.2,-0.37 0.54,-0.37 1.01,0 8.09,6 12.14,14.19 12.14,24.58 0,3.24 -0.58,6.29 -1.73,9.15z"/>
   <path class="fil2" d="M182.04 399.75c-0.52,1.25 -0.99,1.87 -1.41,1.87 -0.52,0 -0.6,-0.8 -0.24,-2.42 0.32,-1.41 0.47,-3.24 0.47,-5.48 0,-7.31 -4.12,-14.59 -12.37,-21.84 -0.52,-0.47 -0.59,-1.04 -0.23,-1.72l2.35 -4.15c0.21,-0.37 0.55,-0.37 1.02,0 8.09,6 12.13,14.2 12.13,24.58 0,3.24 -0.58,6.29 -1.72,9.16z"/>
   <path class="fil2" d="M175.8 213.17c18.41,-6.83 37.65,-13.96 57.71,-21.38 0.78,-0.29 1.25,-0.39 1.39,-0.29 0.2,0.14 0.15,0.56 -0.14,1.24 -0.88,2.15 -1.59,3.44 -2.13,3.88 -16.61,6.12 -36.08,13.69 -58.4,22.7l0 -2.58c0.43,-1.14 0.95,-2.33 1.57,-3.57z"/>
   <path class="fil2" d="M152.05 295.67c18.41,-6.83 37.65,-13.96 57.71,-21.38 0.78,-0.29 1.25,-0.39 1.39,-0.29 0.2,0.14 0.15,0.56 -0.14,1.24 -0.88,2.15 -1.59,3.44 -2.13,3.88 -16.61,6.12 -36.08,13.69 -58.4,22.7l0 -2.58c0.43,-1.14 0.95,-2.33 1.57,-3.57z"/>
   <path class="fil2" d="M118.89 231.24c0,0.52 -0.67,1.71 -1.99,3.56 -1.49,2.07 -2.9,3.58 -4.25,4.55 -0.86,0.6 -3.73,1.54 -8.59,2.83 -0.7,0.18 -1.12,0.26 -1.25,0.26l0 -0.07c0.12,-0.11 0.4,-0.35 0.86,-0.7 0.62,-0.49 2.35,-1.47 5.18,-2.96 2.72,-1.44 4.3,-2.37 4.76,-2.77 0.09,-0.08 0.13,-0.16 0.13,-0.24 0,-0.64 -2.42,-0.96 -7.24,-0.96 -0.02,0 -0.94,0.04 -2.77,0.12 -0.39,0.02 -0.7,0.01 -0.92,-0.01l0 -1.05 1.65 -2.77c0.5,-0.84 1.41,-1.38 2.74,-1.6 0.48,-0.08 1.59,-0.12 3.34,-0.12 5.57,0 8.35,0.65 8.35,1.93z"/>
  </g>
 </g>
</svg>
